<svg version="1" xmlns="http://www.w3.org/2000/svg" width="818.667" height="818.667" viewBox="0 0 614.000000 614.000000"><path d="M378.9 1.7c0 1-.2 2.5-.4 3.3-.1.8-.6 3.3-.9 5.5-.3 2.2-1.1 6.2-1.6 9-.5 2.7-1.1 6.1-1.4 7.5-.2 1.4-.9 5.2-1.5 8.5-1.3 7.5-1.9 10.9-2.6 16-.4 2.2-.8 4.8-1.1 5.8-.3 1-.7 3.2-1 4.9-.3 2.8-2 12.2-3.9 22.3-1.8 9.4-1.8 11.5.1 11.5 1.9 0 12.8 2.7 20.9 5 4.3 1.3 19.8 7.2 25.5 9.7 33.8 15.1 62.1 35.5 85.6 61.8 2.9 3.3 6 6.9 6.8 8l1.5 2 3.8-2c5.3-2.8 18.2-15.9 22.2-22.8 5.7-9.7 8.7-26.5 6.6-36.7-.3-1.4-.7-3.7-1-5.3-1.5-8-8.8-23.8-15.2-33-19.3-27.4-44.7-46.2-89.8-66.3C422.4 12.3 392 2.5 382.3.5c-2.8-.5-3.3-.4-3.4 1.2zM269.7 5.6c-.1.1-3.8.5-8.2.9-4.4.4-8.2.8-8.5 1-.3.2-2.3.6-4.5.9-32.3 5.1-64.4 28-75.9 54-3.6 8.2-4.6 13.7-4.2 23.7.3 11 2.8 19.1 8.6 29 5 8.5 6.5 9.7 9.3 7.9 4.6-2.9 23.6-12 32.2-15.5 8.9-3.6 29.8-10 35.9-11 1.7-.3 4.7-1 6.6-1.5 4.6-1.2 11.2-2.2 24.5-3.7 8.9-1 43-1 51.5 0 12.6 1.5 11.3 2 12.7-5.3.6-3.6 1.4-8.1 1.7-10.2.3-2 .7-4.7 1-6 .3-1.2.8-3.9 1.1-5.8.2-1.9.7-4.6 1-6 .3-1.4 1.4-7.7 2.5-14 3.9-21.9 4.2-24 3.6-24-.4 0-5.8-1.6-12.1-3.5s-12.5-3.7-13.7-3.9c-25.3-5.3-35.7-6.6-54.6-7-5.7-.1-10.4-.1-10.5 0zM291.7 111.6c-.1.1-3.6.5-7.7.8-4.2.4-8.4.8-9.5 1-1.1.2-4.2.7-6.8 1-2.7.4-5.9 1-7 1.2-1.2.3-4.2.9-6.7 1.4-2.5.5-5.4 1.1-6.6 1.4-5.3 1.1-17.8 5.1-27.7 8.7-66.8 24.8-119.5 76.2-146.3 142.6-4.8 11.9-10.9 32.6-12.8 43.3-.2 1.4-.9 5.2-1.5 8.5-3.2 17.5-4.1 39.2-2.7 59.6.3 5.3.8 10.4 1 11.5.2 1 .7 4.6 1.2 7.9.4 3.3.8 6.2.9 6.5.1.3.5 2.3.9 4.5 15.9 82.2 75.3 153.8 153.1 184.5 22.1 8.7 45.7 14.5 67.5 16.7 9.7 1 42.6 1 51 .1 3.6-.4 8.1-1 10.1-1.2 2.9-.3 10.9-1.6 12.9-2.1.3-.1 3.2-.7 6.5-1.4 34.6-7.3 72.8-25.4 101-48 45.3-36.2 75.9-84.2 89-139.4 1.3-5.6 2.6-12 3-14.2.3-2.2.7-4.7 1-5.5.4-1.7 1.5-10.8 2.1-18.5 1.1-13.2.5-39.9-1.2-51.5-2.8-19.4-5.5-30.9-11.3-48.5-20.9-63.7-69.9-118.7-131.7-147.5-9.3-4.4-36.2-14.3-42.1-15.5-1-.2-4-.9-6.8-1.5-8.8-2-17.7-3.7-24-4.5-2.2-.2-6.5-.7-9.5-1.1-5.1-.6-38.8-1.3-39.3-.8zm40.3 24.7c1.4.3 4.6.8 7 1.1 2.5.3 5.6.8 7 1.1 1.4.3 4.1.8 6 1.1 1.9.4 6 1.3 9 2.1 6.1 1.6 8.2 2.1 10.8 2.7.9.2 5.8 1.9 10.7 3.6 68.8 24.3 121.6 81 141.6 152 1.6 5.8 3.2 11.6 3.4 13 .3 1.4.7 3.6 1 5 .6 3 2.1 12.6 3 19.5 1.7 12.6 1.1 43.8-1 56.5-.4 1.9-.8 4.4-.9 5.5-.2 1.1-.6 3.3-1 5-.3 1.6-.8 4.1-1.1 5.5-.4 2-1.3 6.3-2 9-10.6 42.1-35.2 83.2-67.1 112-8.9 8-11.8 10.4-18.9 15.7-16.5 12.1-36.8 22.9-56.7 30.3-10.9 4-30.9 9.2-40.4 10.5-2.1.2-4.8.7-5.9.9-11.7 2.4-40.4 2.4-59 0-19.6-2.5-47.6-10.5-63.4-18.1-4.2-2-7.9-3.7-8.2-3.7-.3-.1-4.8-2.5-10-5.5-52.2-29.7-91-80.1-106.3-138.4-3.5-13.2-4.5-19.1-6.6-36.2-.9-7-.6-45.2.3-49.1.3-1.2.8-4.5 1.2-7.4.8-6 .7-5.5 3.3-17.5 1.1-5 3.5-13.5 5.3-19 1.8-5.5 3.3-10.2 3.4-10.5.1-.3.5-1.4 1-2.5 12.4-31.1 27.7-54.8 50.7-78.2 35.9-36.9 83.1-59.9 134.8-65.9 3-.3 5.6-.8 5.8-.9.5-.4 40.4.3 43.2.8z"/></svg>