<svg xmlns="http://www.w3.org/2000/svg" viewBox="0 0 20 20"><path d="M7.758,0h0A7.759,7.759,0,0,0,0,7.758H0A1.472,1.472,0,0,0,1.472,9.231H7.758A1.472,1.472,0,0,0,9.231,7.758V1.472A1.472,1.472,0,0,0,7.758,0Z"/><path d="M12.242,0h0a1.472,1.472,0,0,0-1.473,1.472V7.758a1.472,1.472,0,0,0,1.473,1.473h6.286A1.472,1.472,0,0,0,20,7.758h0A7.759,7.759,0,0,0,12.242,0Z"/><path d="M7.758,10.769H1.472A1.472,1.472,0,0,0,0,12.242H0A7.758,7.758,0,0,0,7.758,20h0a1.472,1.472,0,0,0,1.473-1.472V12.242A1.472,1.472,0,0,0,7.758,10.769Z"/><path d="M18.528,10.769H12.242a1.472,1.472,0,0,0-1.473,1.473v6.286A1.472,1.472,0,0,0,12.242,20h0A7.758,7.758,0,0,0,20,12.242h0A1.472,1.472,0,0,0,18.528,10.769Z"/></svg>
