<svg xmlns="http://www.w3.org/2000/svg" viewBox="0 0 23.81 20" height="20" width="24"><path fill-rule="evenodd" d="M11.905,14.737h.013a3.573,3.573,0,0,0,3.459-3.676v-.009A3.583,3.583,0,0,0,11.9,7.368a3.583,3.583,0,0,0-3.471,3.685A3.583,3.583,0,0,0,11.905,14.737Zm.99-3.866h-.037a.833.833,0,0,1-.784-.876V9.988a.849.849,0,0,1,.826-.87.868.868,0,0,1,.829.883v.007A.847.847,0,0,1,12.9,10.871ZM11.88,19.994H2.425A2.236,2.236,0,0,1,.3,18.733a2.821,2.821,0,0,1-.285-1.227C-.006,13.76,0,10.014,0,6.267A2.362,2.362,0,0,1,2.36,3.754c.82-.02,1.64,0,2.46,0,.926,0,1.167-.183,1.454-1.09.194-.611.387-1.223.586-1.832A1.046,1.046,0,0,1,7.952,0q3.941,0,7.879,0a1.046,1.046,0,0,1,1.1.819c.214.661.418,1.325.631,1.987a1.119,1.119,0,0,0,1.25.94c.82,0,1.641.025,2.46,0a2.5,2.5,0,0,1,2.539,2.638c-.057,3.692-.046,7.385,0,11.078A2.487,2.487,0,0,1,21.372,20C18.209,19.982,15.044,19.994,11.88,19.994Zm.03-15a6.11,6.11,0,0,0-5.978,6.235,6.115,6.115,0,0,0,5.95,6.267,6.112,6.112,0,0,0,5.979-6.236A6.114,6.114,0,0,0,11.91,5Z"/></svg>
